<svg viewBox="0 0 18 21" fill="none" xmlns="http://www.w3.org/2000/svg">
  <path d="M14.898 9.95735C15.0457 11.2398 14.2137 12.488 14.9852 13.5C15.2503 13.8479 16.1736 14.0852 16.491 14.3873C17.0314 14.9018 17.2273 15.5471 17 16.1791C16.7791 16.7927 16.1605 17.2207 15.4509 17.2507C15.4084 17.2524 15.366 17.2524 15.3239 17.2524C10.4694 17.2524 6.62963 17.2524 1.77511 17.2524C1.31455 17.2524 0.895208 17.1303 0.541295 16.8252C-0.183102 16.2005 -0.182678 15.0955 0.556165 14.4395C1.28396 13.7938 1.85626 13.0389 2.23694 12.1382C2.56493 11.3619 2.71788 10.5491 2.72213 9.70755C2.72638 8.87376 2.72128 8.03997 2.72341 7.20617C2.73063 4.19492 4.77084 1.63226 7.68712 0.969428C8.32527 0.824178 8.97022 0.794186 9.64575 0.8516C12.5 1.5 12.5 2 14 4C15.2308 5.94352 14.5 6.5 14.898 9.95735Z" fill="#B7C4D7"/>
  <path d="M4.11675 9.95735C4.0509 11.2466 3.67616 12.4103 2.90461 13.4223C2.63949 13.7703 2.32637 14.0852 2.00899 14.3873C1.46856 14.9018 1.2727 15.5471 1.5 16.1791C1.72093 16.7927 2.33954 17.2207 3.04906 17.2507C3.09155 17.2524 3.13404 17.2524 3.1761 17.2524C8.03062 17.2524 11.3704 17.2524 16.2249 17.2524C16.6854 17.2524 17.1048 17.1303 17.4587 16.8252C18.1831 16.2005 18.1827 15.0955 17.4438 14.4395C16.716 13.7938 16.1437 13.0389 15.7631 12.1382C15.4351 11.3619 15.2821 10.5491 15.2779 9.70755C15.2736 8.87376 15.2787 8.03997 15.2766 7.20617C15.2694 4.19492 13.2292 1.63226 10.3129 0.969428C9.67473 0.824178 9.02978 0.794186 8.35425 0.8516C5.5 1.50001 5.73084 3.05605 4.5 5C3.26916 6.94352 4.29335 6.50001 4.11675 9.95735Z" fill="#B7C4D7"/>
  <path d="M5.74072 18.168H12.364C12.1749 19.5973 10.6908 20.851 9.19913 20.8994C7.41087 20.9577 6.00754 19.6363 5.74072 18.168Z" fill="#B7C4D7"/>
</svg>