<svg viewBox="0 0 20 20" fill="none" xmlns="http://www.w3.org/2000/svg">
  <path d="M4.99935 9.16732V12.5006M14.9993 7.50065V10.834M14.166 3.33398C16.2066 3.33398 17.3103 3.64628 17.8594 3.88852C17.9326 3.92078 17.9691 3.93691 18.0747 4.03763C18.1379 4.098 18.2534 4.27515 18.2831 4.35739C18.3327 4.4946 18.3327 4.5696 18.3327 4.7196V13.6766C18.3327 14.4339 18.3327 14.8126 18.2191 15.0072C18.1036 15.2052 17.9922 15.2972 17.776 15.3733C17.5634 15.4481 17.1343 15.3657 16.2762 15.2008C15.6755 15.0854 14.9631 15.0006 14.166 15.0006C11.666 15.0006 9.16602 16.6673 5.83268 16.6673C3.79209 16.6673 2.6884 16.355 2.13925 16.1128C2.06612 16.0805 2.02955 16.0644 1.92402 15.9637C1.86075 15.9033 1.74528 15.7262 1.71557 15.6439C1.66602 15.5067 1.66602 15.4317 1.66602 15.2817L1.66602 6.3247C1.66602 5.56739 1.66602 5.18874 1.77958 4.9941C1.8951 4.79612 2.00651 4.70408 2.22273 4.62799C2.4353 4.55319 2.86438 4.63564 3.72254 4.80052C4.3232 4.91593 5.03558 5.00065 5.83268 5.00065C8.33268 5.00065 10.8327 3.33398 14.166 3.33398ZM12.0827 10.0006C12.0827 11.1512 11.1499 12.084 9.99935 12.084C8.84876 12.084 7.91602 11.1512 7.91602 10.0006C7.91602 8.85006 8.84876 7.91732 9.99935 7.91732C11.1499 7.91732 12.0827 8.85006 12.0827 10.0006Z" stroke="#9FA6AB" stroke-width="1.4" stroke-linecap="round" stroke-linejoin="round"/>
</svg>