<svg viewBox="0 0 20 20" fill="none" xmlns="http://www.w3.org/2000/svg">
  <path d="M15.465 16.29C14.6372 14.0758 12.5024 12.4993 9.99935 12.4993C7.49633 12.4993 5.36151 14.0758 4.53365 16.29M15.465 16.29C17.222 14.7622 18.3327 12.5105 18.3327 9.99935C18.3327 5.39698 14.6017 1.66602 9.99935 1.66602C5.39698 1.66602 1.66602 5.39698 1.66602 9.99935C1.66602 12.5105 2.77672 14.7622 4.53365 16.29M15.465 16.29C14.0019 17.5624 12.0906 18.3327 9.99935 18.3327C7.90812 18.3327 5.9968 17.5624 4.53365 16.29M12.4993 7.49935C12.4993 8.88006 11.3801 9.99935 9.99935 9.99935C8.61864 9.99935 7.49935 8.88006 7.49935 7.49935C7.49935 6.11864 8.61864 4.99935 9.99935 4.99935C11.3801 4.99935 12.4993 6.11864 12.4993 7.49935Z" stroke="#9FA6AB" stroke-width="1.4" stroke-linejoin="round"/>
</svg>