<svg width="60" height="36" viewBox="0 0 60 36" fill="none" xmlns="http://www.w3.org/2000/svg">
<path d="M18.9247 28.0418V27.5699C18.9217 25.0149 18.9247 22.4598 18.91 19.9062C18.9059 19.5126 18.8616 19.1204 18.7778 18.7359C18.4531 17.2258 17.6724 16.5319 16.1351 16.408C15.5926 16.3642 15.0433 16.4043 14.4978 16.3869C14.186 16.3771 14.0878 16.4926 14.0908 16.8082C14.1063 18.3206 14.0976 19.8333 14.0976 21.3461V28.066H13.6665C11.8997 28.0683 10.1329 28.066 8.36568 28.0739C6.97525 28.0796 5.63013 27.835 4.36693 27.2615C2.00551 26.1901 0.790637 24.2481 0.29457 21.7757C-0.141094 19.603 -0.0425589 17.4308 0.260594 15.2558C0.288531 15.0546 0.350444 14.8538 0.344781 14.6537C0.33421 14.2554 0.533543 14.1176 0.900875 14.0496C1.97003 13.8499 3.03238 13.6151 4.12381 13.3886C3.99582 14.0681 3.84406 14.7077 3.761 15.3544C3.51033 17.3039 3.41783 19.2553 3.94184 21.1792C4.36844 22.7478 5.35529 23.797 6.89484 24.3625C7.91907 24.74 8.95386 24.865 10.0872 24.7547V24.2764C10.0872 20.8572 10.0921 17.4375 10.0793 14.0183C10.0793 13.6706 10.1804 13.5539 10.5255 13.4849C12.3897 13.1122 14.2687 12.931 16.1672 12.9835C17.2768 13.0141 18.3705 13.1964 19.403 13.6121C21.4178 14.4234 22.4855 15.9818 22.7796 18.0899C22.8828 18.8695 22.9404 19.6545 22.9521 20.4408C22.98 21.7115 22.9597 22.983 22.9597 24.2538C22.9597 24.7804 22.9597 24.7906 23.501 24.791C25.4585 24.791 27.416 24.7857 29.3738 24.7823C29.8514 24.7823 30.3286 24.7823 30.7582 24.7823C30.5547 23.9668 30.2795 23.1827 30.1734 22.3763C29.8442 19.8767 30.2463 17.5289 31.9187 15.5431C33.2106 14.0077 34.9287 13.2402 36.8994 13.0564C39.0766 12.8536 41.2353 13.1036 43.3887 13.4199C43.6907 13.4645 43.6397 13.6464 43.6397 13.8254C43.6397 15.4397 43.6352 17.054 43.6344 18.6687C43.6344 21.2743 43.6344 23.88 43.6344 26.4857V28.0426L18.9247 28.0418ZM39.6448 20.5952H39.6553C39.6553 19.324 39.647 18.0525 39.6621 16.7822C39.6655 16.5088 39.5832 16.3861 39.3144 16.3639C38.8236 16.3239 38.3329 16.2438 37.8379 16.2291C36.4483 16.1872 35.3946 16.7859 34.7671 18.0216C33.969 19.5932 34.0268 21.2143 34.7056 22.8067C35.2806 24.156 36.3795 24.7581 37.8141 24.7925C38.297 24.8042 38.7814 24.7744 39.2635 24.7966C39.5655 24.811 39.655 24.7117 39.6512 24.4097C39.6376 23.1378 39.6448 21.8667 39.6448 20.5952Z" fill="white"/>
<path d="M59.6348 13.4453V27.5123C59.6348 31.7965 57.2081 34.7876 53.0107 35.6933C51.0854 36.1085 49.1509 36.0508 47.2127 35.8141C46.8238 35.7665 46.4346 35.7223 46.0141 35.6733C45.9433 34.4856 45.8739 33.3141 45.8057 32.1589C46.7672 32.2899 47.6793 32.456 48.5993 32.53C49.9543 32.6387 51.3175 32.6972 52.6389 32.2691C54.4261 31.6919 55.6783 29.9251 55.5704 28.0635C55.4193 28.0635 55.2593 28.0635 55.1015 28.0635C53.7424 28.0586 52.3867 28.1103 51.0468 27.7796C48.1071 27.0536 46.4965 25.2611 46.1352 22.2572C45.8974 20.2778 46.1292 18.3686 47.1304 16.6207C48.371 14.4556 50.3235 13.3272 52.7623 13.0572C55.0539 12.8039 57.3255 13.1041 59.6348 13.4453ZM55.5953 20.5945C55.5953 19.3109 55.5877 18.0274 55.6017 16.7438C55.6043 16.4863 55.5145 16.3663 55.2744 16.3436C54.7081 16.2889 54.1361 16.1775 53.5706 16.1971C52.3282 16.2405 51.3481 16.7944 50.752 17.9107C49.9611 19.3921 49.9932 20.9351 50.5232 22.4829C50.983 23.8258 51.965 24.5797 53.3547 24.7571C53.9678 24.8356 54.5982 24.7669 55.2193 24.7949C55.5303 24.8092 55.6047 24.6982 55.6013 24.4045C55.5877 23.1357 55.5956 21.8649 55.5956 20.5945H55.5953Z" fill="white"/>
<path d="M25.0305 2.54037C25.7218 2.35916 26.4062 2.17945 27.0918 2.00239C27.1386 1.99031 27.1915 2.00239 27.2881 2.00239C27.2881 2.41767 27.2851 2.83295 27.2881 3.24823C27.2927 3.71032 27.4539 3.89719 27.8408 3.90135C28.2183 3.9055 28.4147 3.70994 28.4305 3.26673C28.4471 2.80954 28.4241 2.35085 28.4456 1.89442C28.4505 1.79174 28.5498 1.63431 28.6393 1.60486C29.2875 1.39194 29.9448 1.20506 30.6462 0.995911C30.6462 1.62185 30.6462 2.21343 30.6462 2.80501C30.6462 3.29164 30.8097 3.49702 31.1963 3.50985C31.6115 3.52382 31.8581 3.28334 31.8664 2.80954C31.8792 2.09942 31.8698 1.38854 31.8698 0.654254L34.0802 0C34.0802 0.458315 34.0862 0.882653 34.0802 1.30699C34.0677 2.03033 34.127 2.76613 34.0149 3.47436C33.6592 5.72328 31.5432 6.504 29.7647 5.05318C29.3698 5.59945 28.8964 6.09288 28.1908 6.12421C27.6857 6.14687 27.1382 6.09627 26.6709 5.91846C25.4567 5.45259 24.9456 4.34645 25.0305 2.54037Z" fill="white"/>
<path d="M40.697 10.6207C39.4111 10.6283 38.3797 9.62179 38.374 8.35557C38.3688 7.10974 39.4236 6.047 40.6713 6.03719C41.9262 6.02699 42.9364 7.03234 42.9515 8.30234C42.9666 9.59574 41.9764 10.6135 40.697 10.6207Z" fill="white"/>
<path d="M12.8698 32.688C12.8743 33.9783 11.9067 35.0029 10.6888 34.9977C9.4709 34.9924 8.47951 33.9542 8.48933 32.6948C8.49952 31.4146 9.44145 30.45 10.6843 30.4473C11.9414 30.4424 12.8656 31.3908 12.8698 32.688Z" fill="white"/>
<path d="M7.68503 32.6949C7.68503 33.9743 6.74348 34.9849 5.53691 34.9978C4.29108 35.0098 3.30385 33.9849 3.31404 32.6858C3.32424 31.3958 4.25408 30.4467 5.5086 30.4456C6.76311 30.4444 7.6839 31.3954 7.68503 32.6949Z" fill="white"/>
</svg>