<svg width="135" height="36" viewBox="0 0 135 36" fill="none" xmlns="http://www.w3.org/2000/svg">
<path d="M22.8506 28L17 8H23.0056L25.7178 20.3047H25.8727L29.0886 8H33.8156L37.0315 20.3438H37.1864L39.8986 8H45.9042L40.0536 28H34.9005L31.5296 16.8281H31.3746L28.0037 28H22.8506Z" fill="#0D44AD"/>
<path d="M50.4834 28H44.6716L51.2196 8H58.5813L65.1293 28H59.3174L54.9779 13.5078H54.8229L50.4834 28ZM49.3986 20.1094H60.3248V24.1719H49.3986V20.1094Z" fill="#0D44AD"/>
<path d="M67.0399 28V8H80.9883V12.375H72.4255V15.8125H80.1359V20.1875H72.4255V28H67.0399Z" fill="#0D44AD"/>
<path d="M82.9692 28V8H96.9176V12.375H88.3548V15.8125H96.0652V20.1875H88.3548V28H82.9692Z" fill="#0D44AD"/>
<path d="M98.0848 8H104.09L107.965 16.125H108.12L111.994 8H118L110.716 21.7109V28H105.369V21.7109L98.0848 8Z" fill="#0D44AD"/>
</svg>
